Patient4_TMGait_0pt2_02_left_04_EMG.mot
version=1
nRows=40
nColumns=33
inDegrees=no
endheader
time	1LAddLong	2LGlutMax	3LGlutMed	4LIliopsoas	5LSemiMemb	6LBicFemLong	7LRecFem	8LVastMed	9LVastLat	10LGasMed	11LTibAnt	12lTibPost	13LPeroneusLong	14LSol	15LExtDigLong	16LFlexDigLong	17RAddLong	18RGlutMax	19RGlutMed	20RIliopsoas	21RSemiMemb	22RBicFemLong	23RRecFem	24RVastMed	25RVastLat	26RGasMed	27RTibAnt	28RTibPost	29RPeroneusLong	30RSol	31RExtDigLong	32RFlexDigLong
8.76	0.002441	0.006256	-0.081482	0.005493	0.017395	0.034485	-0.027313	-0.007019	0.002136	0.19653	-0.015717	0.30426	0.20111	-0.95703	0.045929	-0.11932	0.018768	-0.075684	-0.1973	-0.066376	0.055695	-0.21683	-0.16434	0.26398	0.13458	0.047913	-0.064392	-0.043945	0.7663	0.86273	-0.009918	-0.011139
8.761	0.003204	0.017548	-0.051575	0.01358	0.01236	0.020447	-0.052643	-0.000458	0.0177	0.078278	-0.00061	0.20859	0.1828	-0.66849	0.0383	-0.12589	0.053864	0.081329	-0.29236	-0.029297	0.010986	-0.38666	-0.085754	0.40604	-0.09201	-0.037994	-0.055847	-0.2449	0.93796	0.33417	-0.001831	-0.015259
8.762	0.006714	0.029449	0.018921	-0.007019	0.020294	0.016632	-0.062256	-0.006104	0.008545	-0.002289	-0.001984	-0.086517	-0.056	0.27542	0.076599	-0.080414	0.04364	0.052185	-0.32638	0.009155	0.062561	-0.32638	0.013885	0.14847	0.011902	-0.084534	-0.06073	-0.69794	0.18326	0.1915	0.001984	-0.02121
8.763	0.005341	0.018921	0.055695	-0.003815	0.018463	0.014954	-0.060425	0.004272	0.017395	-0.006256	-0.006256	-0.18692	0.04303	0.37811	0.068054	-0.095062	0.019989	0.027313	0.090332	0.052032	-0.047302	-0.19562	-0.044403	-0.026093	0.027771	-0.14175	0.016785	0.14542	-0.084991	0.20813	-0.002289	-0.025482
8.764	0.006409	-0.00351	-0.032501	0.002289	0.016022	0.019989	-0.047607	0.002441	0.011749	0.1326	-0.012817	0.046844	0.19501	0.56122	0.011597	-0.09201	0.017853	0.084229	0.60074	0.027313	-0.024719	-0.075836	-0.029144	-0.13397	-0.069733	-0.046387	0.023651	0.61935	0.55557	-0.45563	0.005341	-0.027924
8.765	0.001221	0.032043	-0.038147	0.009613	0.023956	-0.005341	-0.034332	-0.000305	0.006866	0.038147	-0.001068	-0.002136	0.005798	0.44815	-0.075531	-0.084381	-0.006256	0.094299	0.88638	-0.074921	-0.13001	0.18951	-0.1326	-0.5777	0.027618	0.12283	0.043335	0.094604	0.78384	-0.065613	-0.003357	-0.027313
8.766	0.006561	0.059357	-0.036926	0.011444	0.019226	0.010529	-0.035706	0.000305	0.010223	-0.064697	-0.00351	-0.25742	0.23056	-0.041656	-0.081787	-0.10361	0.044708	0.12985	1.409	-0.19928	-0.18173	0.37048	-0.14755	-0.65704	0.02594	0.14984	0.033875	0.27435	-0.069885	0.2243	0.001526	-0.014648
8.767	0.006409	0.075226	-0.062256	-0.002899	0.018921	0.006714	-0.055847	0.00412	0.017242	-0.02655	-0.005493	0.011139	0.15884	-0.20721	-0.033875	-0.14511	0.059052	0.11307	0.76736	-0.16327	-0.14206	0.30762	0.035706	-0.63156	-0.19531	0.11261	0.019379	0.12192	-1.2608	0.02533	0.001373	-0.009155
8.768	0.001678	0.063782	-0.10422	0.001831	0.019379	-0.001068	-0.050049	-0.004883	0.016327	0.004272	-0.002441	-0.078278	0.089722	0.17853	-0.016174	-0.085297	0.024261	0.13962	0.25085	0.028381	-0.037994	0.27496	0.13763	-0.53177	-0.40939	0.061188	0.046997	-0.14526	-0.65033	0.038147	-0.003204	-0.012817
8.769	0.006256	0.065308	-0.082855	0.014648	0.022583	0.003052	-0.0383	-0.002747	0.005798	-0.040283	-0.012665	-0.063934	-0.03006	0.47882	0.025482	-0.048828	-0.018921	0.046997	-0.24933	0.13351	0.046997	0.16892	0.057983	0.19638	-0.51773	-0.008392	0.027466	0.03067	-0.39124	0.054016	-0.001221	-0.009766
8.77	0.007629	0.050201	-0.061188	0.014648	0.018463	0.006561	-0.043182	-0.007935	0.028992	-0.083313	-0.007629	-0.055237	0.22064	0.26382	-0.023804	0.000458	-0.04364	0.031891	-0.40894	0.12741	0.074615	0.17548	-0.02182	0.32608	-0.20538	-0.050659	0.048828	-0.00412	0.44922	-0.1474	0.002899	-0.010376
8.771	0.005341	0.050964	-0.077667	0.018921	0.016937	0.024261	-0.037079	-0.013428	0.032349	-0.016479	-0.006866	-0.046387	0.2536	0.1268	-0.039215	-0.019989	-0.033875	0.039825	-0.90378	0.11795	0.121	0.006409	-0.12741	0.44174	-0.059509	-0.097351	0.21027	-0.22507	0.14603	-0.20355	-0.001373	-0.013885
8.772	0.002747	0.061493	-0.005035	0.006561	0.017395	0.015411	-0.052948	-0.009308	0.021515	-0.027466	-0.00061	-0.041046	0.18509	0.11749	0.012665	-0.029449	-0.06897	0.008392	-1.8048	0.074768	0.1181	-0.020447	-0.14481	0.3038	-0.1001	-0.072174	0.27603	0.13504	0.023956	-0.3331	-0.001831	-0.013885
8.773	0.003204	0.062103	-0.042725	0.003357	0.02655	-0.010986	-0.033722	-0.008545	0.025787	-0.064697	-0.002441	-0.035706	0.02121	0.1619	0.064087	-0.025482	-0.062866	0.029449	-1.7345	0.000458	0.004883	-0.12817	-0.005646	0.17258	-0.087738	-0.069275	-0.08255	0.018463	0.1355	-0.37567	-0.004272	-0.004425
8.774	0.004425	0.061188	-0.033875	0.000916	0.024109	-0.010834	-0.035706	-0.012054	0.023651	-0.030975	-0.009155	-0.033417	-0.27206	0.048828	0.023346	-0.031281	0.027618	0.041962	0.11917	-0.10788	0.13855	-0.54108	0.14679	0.19928	-0.076141	-0.007019	-0.19791	0.067902	-0.41855	-0.10254	-0.002289	0.003815
8.775	0.000305	0.071259	0.020599	0.008698	0.024109	0.007172	-0.019226	-0.009766	0.001678	-0.018616	0.010529	-0.028839	-0.22888	0.068817	-0.020447	-0.031433	0.087128	-0.043335	1.801	-0.072632	0.069733	-0.26276	0.21118	0.017242	0.040894	-0.036926	-0.023346	0.024414	-0.06897	-0.10956	0.002594	-0.006561
8.776	0.007019	0.031586	-0.002899	0.010376	0.02533	0.012054	-0.006409	-0.006256	0	-0.031891	0.002289	-0.023041	-0.001984	0.066376	-0.014191	-0.010071	0.10895	-0.13077	1.4592	0.063171	-0.022736	-0.10086	0.11581	0.11063	0.14526	-0.08606	-0.032654	-0.14679	1.7183	-0.17899	-0.001831	-0.009766
8.777	0.003967	-0.028992	-0.15564	0.008392	0.025787	0.014191	-0.015106	0.001221	-0.015564	-0.000153	0.005035	-0.022125	0.10742	-0.071259	-0.054779	-0.004425	0.077362	-0.15243	1.3031	0.038757	-0.038757	0.177	0.11292	-0.25894	0.12238	-0.067139	-0.24536	0.052795	-0.34317	-0.18433	-0.004578	-0.001678
8.778	0.007782	0.012054	-0.10407	-0.012512	0.025482	0.028992	-0.023804	-0.00061	-0.008392	-0.017548	-0.005341	-0.014343	-0.058289	-0.023651	0.004425	-0.00946	0.070496	-0.12726	0.54565	-0.052185	-0.10468	0.029907	0.13306	-0.31281	0.16998	0.055695	-0.083466	0.02121	-2.0087	0.045319	-0.001526	-0.009613
8.779	-0.001678	-0.002136	-0.051575	-0.016174	0.02243	0.044403	-0.00351	-0.00351	-0.016632	-0.038147	-0.015564	-0.007935	-0.26886	0.10773	0.036163	-0.014648	0.049744	-0.10468	-0.44022	0.058289	-0.28442	-0.13794	0.15808	-0.289	0.15808	0.073242	0.049744	-0.17792	-0.7663	0.50934	0	-0.000153
8.78	0.001373	-0.02243	-0.019836	0.005646	0.019836	0.056152	-0.00473	0.001068	-0.025177	0.001373	-0.015106	-0.01297	-0.10681	0.10971	-0.029907	-0.008545	0.046387	0.00473	-0.90759	0.082703	-0.51834	-0.092163	0.14954	-0.38162	0.057678	0.10391	-0.060883	-0.083771	0.22171	0.61768	0.000916	-0.016937
8.781	0.004425	-0.040741	-0.055237	0.001068	0.014496	0.048981	0.009613	-0.002289	-0.01709	0.016937	-0.011139	-0.010834	0.25848	0.11322	-0.06012	-0.012512	0.066681	0.093842	-0.4512	0.12848	-0.15335	0.005188	0.33691	-0.5098	0.095825	0.088654	-0.055847	0.063019	-0.050354	0.43579	-0.001984	-0.01709
8.782	0.001068	-0.053406	-0.084076	0.007324	0.019836	0.056915	0.025482	0.000458	-0.010223	-0.049286	-0.000305	-0.003357	0.13336	0.066376	-0.029755	-0.017853	0.072327	0.02594	-0.54962	0.072327	0.072174	0.011597	0.68344	-0.35461	0.061035	0.037231	-0.071259	0.13367	0.53696	-0.11307	-0.004425	-0.020447
8.783	0.004578	-0.070801	-0.12512	0.006866	0.022888	0.034485	0.066681	0	-0.019989	-0.026245	-0.001526	0.30609	0.083771	0.054932	0.022583	-0.017395	0.023804	-0.112	-0.33615	-0.027618	0.27451	0.056915	0.7727	-0.063324	-0.009766	0.018921	-0.002747	0.047607	0.91629	-0.44235	-0.003357	-0.016937
8.784	0.006714	-0.076141	0.014191	-0.011902	0.012665	0.031586	0.072021	0.003967	-0.009613	0.007629	-0.006256	-0.015869	-0.12222	-0.045776	0.074005	-0.030823	-0.07843	0.01709	0.345	-0.037079	0.42023	0.1091	0.63355	0.045013	-0.10819	0.006409	0.062256	-0.009308	1.1945	-0.14496	-0.002441	-0.014343
8.785	0.006409	-0.059357	0.006561	-0.028839	0.028076	0.03418	0.053558	0.005035	-0.021667	0.13062	-0.010834	-0.01358	-0.12421	-0.030365	0.080719	-0.016327	-0.076904	0.027618	0.793	-0.022125	0.073547	0.10834	0.82596	0.168	-0.39764	0.015411	0.16205	-0.030212	-0.38681	0.02182	-0.004883	-0.018921
8.786	0.010681	-0.073547	0.041962	-0.019989	0.02243	0.050964	0.029602	0.009766	-0.018158	0.17166	-0.018616	-0.023041	-0.061188	0.011444	0.037689	0	-0.077362	-0.080872	0.47897	-0.14481	-0.21698	0.068512	0.87891	0.495	-0.57953	-0.006714	0.12619	-0.029907	-1.1353	-0.013123	0.00061	-0.016327
8.787	0.004425	-0.089264	0.025787	-0.007172	0.023193	0.054169	0.014801	0.014191	-0.031586	0.18127	0.012665	-0.048828	-0.017853	0.002441	-0.011902	0.014954	-0.036926	-0.11169	0.26901	-0.090942	-0.063477	0.10696	0.60394	0.055084	-0.81039	0.015106	0.027924	-0.026855	-0.13657	-0.24933	-0.004578	-0.001526
8.788	0.006104	-0.070953	0.015717	-0.012054	0.013123	0.059204	0.008087	0.014954	-0.027618	0.1619	-0.004883	-0.060883	-0.033112	0.13336	-0.020447	0.022583	0.02182	-0.10132	0.5513	-0.010223	0.21744	0.14435	0.033264	-0.47318	-0.77621	0.018768	-0.039673	-0.02594	-0.088348	-0.39261	-0.002899	-0.000916
8.789	0.000305	-0.05722	0.023041	0.013123	0.016174	0.038147	-0.027771	0.022888	-0.010529	-0.084381	-0.003967	-0.06424	-0.10361	0.050049	-0.008087	0.021973	0.030518	-0.035553	0.42572	0.099182	0.23499	0.28717	-0.70465	-0.80078	-0.46005	0.005951	0.018463	-0.025024	0.51407	-0.36133	-0.001221	-0.002899
8.79	0.004578	-0.052032	-0.025482	0.066681	0.016479	0.027008	-0.096588	0.017853	-0.005188	-0.14679	-0.005188	-0.046234	0.090637	-0.17334	-0.029907	0.023804	-0.026093	-0.091095	-0.23438	0.31082	-0.052338	0.2066	-1.2553	0.08255	-0.18051	-0.001831	0.05188	-0.028839	0.54031	-0.25238	-0.003662	-0.001526
8.791	0.008545	-0.06958	-0.065918	0.052185	0.021362	-0.001373	-0.11337	0.018005	0.005188	-0.005798	-0.009918	-0.039215	0.30334	-0.045624	0.002136	0.019836	-0.035553	-0.040131	-0.69534	0.34286	0.2066	0.025177	-1.4824	0.9404	0.012512	-0.001984	-0.072479	-0.023499	0.093842	-0.025024	0.001526	-0.019989
8.792	0.012817	-0.064087	-0.097198	0.014343	0.019073	0.015411	-0.081787	0.011749	0.002441	-0.001068	-0.009155	-0.031433	0.28061	0.17105	0.065918	0.005341	-0.048065	-0.06546	-0.11093	0.10254	0.1712	-0.036469	-1.161	0.71198	0.06424	0.017395	-0.053253	-0.027771	0.12024	0.02121	-0.002136	-0.008392
8.793	0.007019	-0.066071	-0.098877	-0.027008	0.019989	0.024414	-0.070343	0.011292	0.005646	-0.17914	-0.013733	-0.017242	-0.10849	0.14069	0.042572	0.00824	-0.018158	-0.045471	0.17258	-0.021362	0.071106	-0.067749	-1.0291	0.18601	0.27298	0.025482	-0.088959	-0.024414	-0.32364	-0.059662	-0.004883	-0.003662
8.794	0.008545	-0.082397	0.006104	-0.02121	0.019836	0.006256	-0.074463	0.010223	0.01358	-0.12253	-0.008087	-0.018616	-0.24139	-0.006409	-0.058441	0.01236	-0.013123	-0.053864	-0.092926	-0.073547	0.067139	-0.068817	-0.86197	-0.18845	0.40329	0.011597	-0.051422	-0.028687	-0.39429	0.049133	-0.003052	-0.007324
8.795	0.00946	-0.057678	0.11215	-0.019684	0.026703	-0.013885	-0.075531	0.008087	0.006256	0.080872	-0.002899	-0.015717	-0.038757	-0.0737	-0.038147	0.016479	0.033722	0.056305	-0.079346	-0.13779	0.011749	-0.19959	-0.35797	-0.51971	0.38208	0.004578	0.032806	-0.034637	-0.4361	-0.021362	-0.003662	-0.009308
8.796	0.016174	-0.024261	0.024719	0.007935	0.025482	-0.024872	-0.059814	0.010223	0.016632	0.016632	0.01358	-0.006866	-0.073853	-0.070801	-0.048065	-0.000153	0.06485	0.1712	-0.32349	-0.14633	-0.21729	-0.26291	0.30243	-0.86685	0.42602	0.006256	-0.004425	-0.022278	0.073242	0.10086	-0.000305	-0.010681
8.797	0.021057	-0.082855	-0.029449	0.023041	0.023804	-0.023499	-0.039215	0.00412	0.031433	-0.05188	0.016632	-0.007172	0.054779	-0.006561	0.016632	0.005798	0.074615	0.10284	-0.27847	-0.099487	-0.51361	-0.20737	0.41565	-0.4744	0.54504	0.006714	-0.07019	-0.006561	0.35309	0.13794	-0.001831	-0.003662
8.798	0.009918	-0.079498	-0.02243	0.020142	0.027618	-0.024261	-0.0383	0.003662	0.020447	-0.048523	-0.072021	0.002899	-0.19943	0.026398	0.026398	-0.003662	0.08667	0.14465	-0.033569	-0.044708	-0.55115	-0.11444	0.25955	-0.16769	0.52139	-0.003357	-0.075073	-0.011139	0.30609	0.23941	-0.004578	-0.013428
8.799	0.020599	-0.027008	-0.00061	0.016632	0.025177	-0.027161	-0.04425	0.009308	0.024414	-0.040894	0.005188	-0.001678	-0.18555	0.097656	-0.030212	-0.008392	0.016632	0.30289	0.22354	0.039825	-0.27359	-0.091553	0.16571	0.1973	0.34866	-0.02182	-0.024719	-0.013885	0.05188	0.23285	0.001373	-0.012512
